<svg width="152" height="60" viewBox="0 0 152 60" fill="none" xmlns="http://www.w3.org/2000/svg">
<path fill-rule="evenodd" clip-rule="evenodd" d="M29.6427 8.12851L2.94244 43.2182L19.2106 43.4371L37.5215 17.904L56.4889 43.4371L72.3193 43.2182L45.2543 6.66948C40.2936 -1.57404 35.1141 -0.406816 29.6427 8.12851Z" fill="#00A859"/>
<path fill-rule="evenodd" clip-rule="evenodd" d="M37.9592 28.1902L27.746 43.2182H48.756L37.9592 28.1902Z" fill="#00A859"/>
<path fill-rule="evenodd" clip-rule="evenodd" d="M45.8379 1.1981L72.5382 37.3821C77.7907 45.7715 82.9703 45.1149 88.2228 37.3821L107.409 11.849H125.282C136.663 13.381 140.456 28.7008 125.282 31.6918H107.409L107.19 16.8827L94.8614 33.8074V43.437H126.376C154.828 40.0083 156.432 4.55387 126.376 1.41696H98.436L80.0522 27.0959L61.0848 0.833344L45.8379 1.1981Z" fill="#00A859"/>
<path d="M148.401 57.2736H147.16V54.8797C147.16 54.3732 147.133 54.0463 147.08 53.8991C147.027 53.7489 146.94 53.6326 146.82 53.5502C146.702 53.4677 146.559 53.4265 146.391 53.4265C146.176 53.4265 145.983 53.4854 145.813 53.6032C145.642 53.721 145.524 53.877 145.459 54.0714C145.398 54.2657 145.367 54.625 145.367 55.1491V57.2736H144.125V52.5829H145.278V53.2719C145.688 52.7419 146.203 52.4769 146.824 52.4769C147.098 52.4769 147.348 52.5269 147.575 52.627C147.802 52.7242 147.973 52.8494 148.087 53.0025C148.205 53.1556 148.286 53.3293 148.33 53.5237C148.377 53.718 148.401 53.9963 148.401 54.3585V57.2736Z" fill="#00A859"/>
<path d="M141.617 51.9468V50.7984H142.858V51.9468H141.617ZM141.617 57.2736V52.5828H142.858V57.2736H141.617Z" fill="#00A859"/>
<path d="M137.721 57.2736V51.8938H135.8V50.7984H140.945V51.8938H139.028V57.2736H137.721Z" fill="#00A859"/>
<path d="M125.596 52.5829H126.74V53.2233C127.15 52.7257 127.637 52.4769 128.202 52.4769C128.503 52.4769 128.763 52.5387 128.984 52.6624C129.205 52.7861 129.386 52.973 129.528 53.2233C129.734 52.973 129.956 52.7861 130.195 52.6624C130.433 52.5387 130.688 52.4769 130.959 52.4769C131.303 52.4769 131.595 52.5475 131.833 52.6889C132.072 52.8273 132.25 53.0319 132.368 53.3028C132.453 53.5031 132.496 53.827 132.496 54.2746V57.2736H131.255V54.5926C131.255 54.1273 131.212 53.827 131.126 53.6915C131.012 53.5148 130.835 53.4265 130.596 53.4265C130.423 53.4265 130.259 53.4795 130.106 53.5855C129.953 53.6915 129.843 53.8476 129.775 54.0537C129.707 54.2569 129.673 54.5793 129.673 55.021V57.2736H128.432V54.703C128.432 54.2466 128.41 53.9521 128.366 53.8196C128.322 53.6871 128.253 53.5885 128.158 53.5237C128.067 53.4589 127.942 53.4265 127.783 53.4265C127.591 53.4265 127.419 53.478 127.266 53.5811C127.113 53.6842 127.003 53.8329 126.935 54.0272C126.87 54.2215 126.838 54.544 126.838 54.9945V57.2736H125.596V52.5829Z" fill="#00A859"/>
<path d="M123.37 55.7807L124.607 55.9883C124.448 56.4417 124.196 56.7877 123.852 57.0262C123.51 57.2618 123.082 57.3796 122.566 57.3796C121.751 57.3796 121.147 57.1131 120.756 56.5801C120.446 56.1532 120.292 55.6143 120.292 54.9635C120.292 54.1862 120.495 53.5781 120.901 53.1394C121.308 52.6977 121.821 52.4768 122.443 52.4768C123.141 52.4768 123.691 52.708 124.095 53.1703C124.498 53.6296 124.691 54.3349 124.673 55.286H121.564C121.573 55.6541 121.673 55.9412 121.864 56.1473C122.056 56.3505 122.294 56.452 122.58 56.452C122.774 56.452 122.937 56.399 123.07 56.293C123.202 56.187 123.303 56.0162 123.37 55.7807ZM123.441 54.5263C123.432 54.167 123.339 53.8947 123.163 53.7091C122.986 53.5207 122.771 53.4265 122.518 53.4265C122.247 53.4265 122.023 53.5251 121.846 53.7224C121.67 53.9197 121.583 54.1876 121.586 54.5263H123.441ZM120.99 51.991L121.917 50.688H123.066L123.98 51.991H122.982L122.469 51.3328L121.992 51.991H120.99ZM123.079 50.4495H122.297L121.078 49.2039H122.469L123.079 50.4495Z" fill="#00A859"/>
<path d="M118.136 51.9468V50.7984H119.377V51.9468H118.136ZM118.136 57.2736V52.5828H119.377V57.2736H118.136Z" fill="#00A859"/>
<path d="M111.621 57.2736V50.7984H112.893L115.544 55.1226V50.7984H116.758V57.2736H115.446L112.836 53.051V57.2736H111.621Z" fill="#00A859"/>
<path d="M107.818 57.2736H106.577V54.8797C106.577 54.3732 106.551 54.0463 106.498 53.8991C106.445 53.7489 106.358 53.6326 106.237 53.5502C106.119 53.4677 105.977 53.4265 105.809 53.4265C105.594 53.4265 105.401 53.4854 105.23 53.6032C105.059 53.721 104.941 53.877 104.877 54.0714C104.815 54.2657 104.784 54.625 104.784 55.1491V57.2736H103.543V52.5829H104.696V53.2719C105.105 52.7419 105.62 52.4769 106.242 52.4769C106.515 52.4769 106.766 52.5269 106.992 52.627C107.219 52.7242 107.39 52.8494 107.505 53.0025C107.623 53.1556 107.704 53.3293 107.748 53.5237C107.795 53.718 107.818 53.9963 107.818 54.3585V57.2736Z" fill="#00A859"/>
<path d="M97.7346 54.862C97.7346 54.4498 97.8361 54.0508 98.0393 53.665C98.2425 53.2793 98.5296 52.9848 98.9006 52.7816C99.2746 52.5785 99.6912 52.4769 100.151 52.4769C100.86 52.4769 101.442 52.708 101.895 53.1703C102.349 53.6297 102.575 54.2112 102.575 54.915C102.575 55.6247 102.346 56.2136 101.886 56.6818C101.43 57.147 100.854 57.3796 100.159 57.3796C99.7295 57.3796 99.3187 57.2825 98.9271 57.0881C98.5384 56.8938 98.2425 56.6096 98.0393 56.2357C97.8361 55.8588 97.7346 55.4009 97.7346 54.862ZM99.0066 54.9283C99.0066 55.3935 99.117 55.7498 99.3379 55.9971C99.5587 56.2445 99.8311 56.3682 100.155 56.3682C100.479 56.3682 100.75 56.2445 100.968 55.9971C101.189 55.7498 101.299 55.3906 101.299 54.9194C101.299 54.4601 101.189 54.1067 100.968 53.8594C100.75 53.612 100.479 53.4883 100.155 53.4883C99.8311 53.4883 99.5587 53.612 99.3379 53.8594C99.117 54.1067 99.0066 54.463 99.0066 54.9283ZM99.4836 59.0448V57.8037H100.725V59.0448H99.4836Z" fill="#00A859"/>
<path d="M95.6851 57.2736H94.444V52.5829H95.5968V53.2498C95.7941 52.9348 95.9707 52.7272 96.1268 52.627C96.2858 52.5269 96.4654 52.4769 96.6657 52.4769C96.9484 52.4769 97.2207 52.5549 97.4828 52.711L97.0985 53.7931C96.8895 53.6577 96.6951 53.5899 96.5155 53.5899C96.3418 53.5899 96.1945 53.6385 96.0738 53.7357C95.9531 53.8299 95.8574 54.0022 95.7867 54.2525C95.719 54.5028 95.6851 55.0269 95.6851 55.8249V57.2736Z" fill="#00A859"/>
<path d="M90.9369 57.2736V51.8938H89.0156V50.7984H94.1613V51.8938H92.2443V57.2736H90.9369Z" fill="#00A859"/>
<path d="M84.4352 51.9468V50.7984H85.6764V51.9468H84.4352ZM84.4352 57.2736V52.5828H85.6764V57.2736H84.4352Z" fill="#00A859"/>
<path d="M82.5403 52.5828H83.7815V53.4706C83.7815 53.8358 83.7491 54.1214 83.6843 54.3275C83.6225 54.5336 83.5062 54.7177 83.3354 54.8796C83.0733 55.1329 82.6684 55.3037 82.1207 55.392V57.2736H80.9679V56.5713C80.5999 57.1102 80.0816 57.3796 79.4132 57.3796C78.7212 57.3796 78.2574 57.1161 78.0218 56.589C77.91 56.3387 77.854 55.9927 77.854 55.551V52.5828H79.0952V54.7383C79.0952 55.3567 79.1187 55.7601 79.1658 55.9485C79.1982 56.0899 79.2807 56.2077 79.4132 56.3019C79.5339 56.3902 79.687 56.4344 79.8725 56.4344C80.0816 56.4344 80.2701 56.377 80.4379 56.2621C80.6087 56.1473 80.725 56.003 80.7868 55.8293C80.8487 55.6555 80.8796 55.233 80.8796 54.5616V52.5828H82.1207V54.8885C82.53 54.806 82.8171 54.6529 82.982 54.4291C83.0822 54.2937 83.1352 54.092 83.1411 53.824H82.5403V52.5828ZM79.7665 51.5228C79.9344 51.5051 80.0418 51.4889 80.089 51.4742C80.245 51.4359 80.3245 51.3682 80.3275 51.271C80.3304 51.2033 80.2892 51.1459 80.2038 51.0988C80.0801 51.031 79.8843 50.9972 79.6164 50.9972C79.5251 50.9972 79.3867 51.0031 79.2012 51.0148L79.1526 50.5643C79.2674 50.5408 79.4794 50.5304 79.7886 50.5334C80.1508 50.5363 80.4467 50.5952 80.6764 50.7101C80.9297 50.8337 81.0592 51.006 81.0651 51.2268C81.0769 51.5331 80.8089 51.7201 80.2612 51.7878V52.0086H79.7665V51.5228Z" fill="#00A859"/>
<path d="M73.8611 54.8929V53.8019H76.6791V56.3814C76.4053 56.6464 76.0078 56.8805 75.4866 57.0837C74.9683 57.2839 74.4427 57.384 73.9097 57.384C73.2325 57.384 72.6421 57.2427 72.1385 56.96C71.635 56.6744 71.2566 56.268 71.0034 55.7409C70.7502 55.2109 70.6235 54.6352 70.6235 54.0139C70.6235 53.3396 70.7649 52.7404 71.0476 52.2162C71.3302 51.6921 71.744 51.2902 72.2887 51.0104C72.7039 50.7955 73.2207 50.688 73.8391 50.688C74.6429 50.688 75.2701 50.8573 75.7207 51.1959C76.1741 51.5316 76.4656 51.9969 76.5952 52.5917L75.2966 52.8346C75.2054 52.5166 75.0331 52.2663 74.7799 52.0837C74.5296 51.8982 74.216 51.8055 73.8391 51.8055C73.2678 51.8055 72.8129 51.9866 72.4742 52.3487C72.1385 52.7109 71.9707 53.2483 71.9707 53.9609C71.9707 54.7295 72.1415 55.3066 72.4831 55.6924C72.8246 56.0752 73.2722 56.2666 73.8258 56.2666C74.0996 56.2666 74.3735 56.2136 74.6473 56.1075C74.9241 55.9986 75.1612 55.8676 75.3585 55.7144V54.8929H73.8611Z" fill="#00A859"/>
<path d="M64.0291 50.7984V53.1791C64.4295 52.7109 64.908 52.4768 65.4646 52.4768C65.7502 52.4768 66.0078 52.5298 66.2375 52.6358C66.4672 52.7418 66.6395 52.8773 66.7543 53.0422C66.8721 53.2071 66.9516 53.3897 66.9928 53.5899C67.037 53.7901 67.0591 54.1008 67.0591 54.5219V57.2736H65.8179V54.7957C65.8179 54.304 65.7944 53.9918 65.7473 53.8593C65.7001 53.7268 65.6162 53.6223 65.4955 53.5457C65.3777 53.4662 65.229 53.4265 65.0494 53.4265C64.8433 53.4265 64.6592 53.4765 64.4973 53.5766C64.3353 53.6768 64.2161 53.8284 64.1395 54.0316C64.0659 54.2318 64.0291 54.5292 64.0291 54.9238V57.2736H62.7879V50.7984H64.0291Z" fill="#00A859"/>
<path d="M61.5291 57.2736H60.2879V54.8797C60.2879 54.3732 60.2614 54.0463 60.2084 53.8991C60.1554 53.7489 60.0686 53.6326 59.9478 53.5502C59.8301 53.4677 59.6872 53.4265 59.5194 53.4265C59.3044 53.4265 59.1116 53.4854 58.9408 53.6032C58.77 53.721 58.6522 53.877 58.5874 54.0714C58.5256 54.2657 58.4947 54.625 58.4947 55.1491V57.2736H57.2535V52.5829H58.4063V53.2719C58.8156 52.7419 59.3309 52.4769 59.9523 52.4769C60.2261 52.4769 60.4764 52.5269 60.7031 52.627C60.9299 52.7242 61.1007 52.8494 61.2155 53.0025C61.3333 53.1556 61.4143 53.3293 61.4584 53.5237C61.5055 53.718 61.5291 53.9963 61.5291 54.3585V57.2736Z" fill="#00A859"/>
<path d="M54.7447 57.2736V52.5828H55.9859V57.2736H54.7447ZM55.9947 52.0086H55.2129L53.9938 50.688H55.3852L55.9947 52.0086Z" fill="#00A859"/>
<path d="M52.4082 57.2736H51.167V52.5829H52.3198V53.2498C52.5171 52.9348 52.6938 52.7272 52.8499 52.627C53.0089 52.5269 53.1885 52.4769 53.3887 52.4769C53.6714 52.4769 53.9438 52.5549 54.2059 52.711L53.8216 53.7931C53.6125 53.6577 53.4182 53.5899 53.2386 53.5899C53.0648 53.5899 52.9176 53.6385 52.7969 53.7357C52.6761 53.8299 52.5804 54.0022 52.5098 54.2525C52.442 54.5028 52.4082 55.0269 52.4082 55.8249V57.2736Z" fill="#00A859"/>
<path d="M47.66 57.2736V51.8938H45.7386V50.7984H50.8843V51.8938H48.9674V57.2736H47.66Z" fill="#00A859"/>
<path d="M38.0311 57.5828L39.4489 57.7551C39.4725 57.92 39.5269 58.0333 39.6123 58.0952C39.7301 58.1835 39.9156 58.2277 40.1689 58.2277C40.4928 58.2277 40.7357 58.1791 40.8977 58.0819C41.0066 58.0172 41.0891 57.9126 41.145 57.7683C41.1833 57.6653 41.2024 57.4753 41.2024 57.1986V56.5139C40.8314 57.0204 40.3632 57.2736 39.7978 57.2736C39.1677 57.2736 38.6686 57.0072 38.3005 56.4742C38.0119 56.0531 37.8677 55.529 37.8677 54.9018C37.8677 54.1155 38.0561 53.5148 38.433 53.0997C38.8129 52.6845 39.284 52.4769 39.8464 52.4769C40.4265 52.4769 40.905 52.7316 41.2819 53.241V52.5829H42.4436V56.7922C42.4436 57.3458 42.3979 57.7595 42.3067 58.0333C42.2154 58.3072 42.0873 58.5222 41.9224 58.6782C41.7575 58.8343 41.5366 58.9565 41.2598 59.0448C40.986 59.1332 40.6385 59.1773 40.2175 59.1773C39.4224 59.1773 38.8585 59.0404 38.5258 58.7666C38.193 58.4957 38.0267 58.1511 38.0267 57.733C38.0267 57.6918 38.0281 57.6417 38.0311 57.5828ZM39.1397 54.8311C39.1397 55.3287 39.2354 55.6939 39.4268 55.9265C39.6212 56.1562 39.8597 56.271 40.1424 56.271C40.4457 56.271 40.7018 56.1532 40.9109 55.9176C41.12 55.6791 41.2245 55.3273 41.2245 54.862C41.2245 54.3761 41.1244 54.0154 40.9242 53.7799C40.7239 53.5443 40.4707 53.4265 40.1644 53.4265C39.867 53.4265 39.6212 53.5428 39.4268 53.7754C39.2354 54.0051 39.1397 54.357 39.1397 54.8311Z" fill="#00A859"/>
<path d="M36.8827 57.2736H35.6416V54.8797C35.6416 54.3732 35.6151 54.0463 35.5621 53.8991C35.5091 53.7489 35.4222 53.6326 35.3015 53.5502C35.1837 53.4677 35.0409 53.4265 34.873 53.4265C34.6581 53.4265 34.4652 53.4854 34.2944 53.6032C34.1236 53.721 34.0058 53.877 33.941 54.0714C33.8792 54.2657 33.8483 54.625 33.8483 55.1491V57.2736H32.6071V52.5829H33.76V53.2719C34.1693 52.7419 34.6846 52.4769 35.3059 52.4769C35.5797 52.4769 35.83 52.5269 36.0568 52.627C36.2835 52.7242 36.4543 52.8494 36.5691 53.0025C36.6869 53.1556 36.7679 53.3293 36.812 53.5237C36.8592 53.718 36.8827 53.9963 36.8827 54.3585V57.2736Z" fill="#00A859"/>
<path d="M26.7989 54.862C26.7989 54.4497 26.9005 54.0507 27.1037 53.665C27.3068 53.2792 27.5939 52.9848 27.965 52.7816C28.3389 52.5784 28.7556 52.4768 29.2149 52.4768C29.9246 52.4768 30.5062 52.708 30.9596 53.1703C31.4131 53.6297 31.6398 54.2112 31.6398 54.915C31.6398 55.6246 31.4101 56.2136 30.9508 56.6817C30.4944 57.147 29.9187 57.3796 29.2238 57.3796C28.7939 57.3796 28.3831 57.2824 27.9915 57.0881C27.6028 56.8938 27.3068 56.6096 27.1037 56.2356C26.9005 55.8587 26.7989 55.4008 26.7989 54.862ZM28.071 54.9282C28.071 55.3935 28.1814 55.7498 28.4022 55.9971C28.6231 56.2445 28.8955 56.3681 29.2194 56.3681C29.5433 56.3681 29.8142 56.2445 30.0321 55.9971C30.2529 55.7498 30.3633 55.3905 30.3633 54.9194C30.3633 54.46 30.2529 54.1067 30.0321 53.8593C29.8142 53.612 29.5433 53.4883 29.2194 53.4883C28.8955 53.4883 28.6231 53.612 28.4022 53.8593C28.1814 54.1067 28.071 54.463 28.071 54.9282ZM27.722 51.991L28.6496 50.688H29.798L30.7123 51.991H29.7141L29.2017 51.3329L28.7247 51.991H27.722Z" fill="#00A859"/>
<path d="M24.7009 54.8929L25.9685 55.2948C25.7742 56.0015 25.4503 56.5272 24.9968 56.8717C24.5463 57.2132 23.9735 57.384 23.2786 57.384C22.4188 57.384 21.7121 57.091 21.1585 56.5051C20.6049 55.9161 20.3281 55.1123 20.3281 54.0934C20.3281 53.0157 20.6064 52.1794 21.1629 51.5846C21.7194 50.9869 22.4512 50.688 23.3581 50.688C24.1502 50.688 24.7936 50.9221 25.2883 51.3903C25.5828 51.6671 25.8036 52.0646 25.9508 52.5828L24.6567 52.892C24.5801 52.5563 24.4196 52.2913 24.1752 52.097C23.9338 51.9026 23.6393 51.8055 23.2919 51.8055C22.8119 51.8055 22.4217 51.9777 22.1214 52.3222C21.824 52.6668 21.6753 53.2248 21.6753 53.9963C21.6753 54.8149 21.8225 55.3979 22.117 55.7454C22.4114 56.0928 22.7942 56.2666 23.2654 56.2666C23.6128 56.2666 23.9117 56.1561 24.162 55.9353C24.4123 55.7144 24.5919 55.367 24.7009 54.8929Z" fill="#00A859"/>
<path d="M15.5137 51.9468V50.7984H16.7548V51.9468H15.5137ZM15.5137 57.2736V52.5828H16.7548V57.2736H15.5137Z" fill="#00A859"/>
<path d="M10.0676 54.9283C10.0676 55.3788 10.178 55.7351 10.3989 55.9971C10.6079 56.2445 10.8803 56.3682 11.216 56.3682C11.5517 56.3682 11.8226 56.2445 12.0287 55.9971C12.2496 55.7351 12.36 55.3758 12.36 54.9194C12.36 54.4718 12.2496 54.1185 12.0287 53.8594C11.8226 53.612 11.5517 53.4883 11.216 53.4883C10.8803 53.4883 10.6079 53.612 10.3989 53.8594C10.178 54.1214 10.0676 54.4777 10.0676 54.9283ZM13.6232 52.5829H14.8644V53.4707C14.8644 53.8358 14.832 54.1214 14.7672 54.3276C14.7054 54.5337 14.5891 54.7177 14.4183 54.8797C14.221 55.0711 13.9515 55.2212 13.61 55.3302C13.5364 55.8573 13.317 56.3063 12.9518 56.6774C12.4925 57.1455 11.9153 57.3796 11.2204 57.3796C10.7758 57.3796 10.3665 57.2825 9.99252 57.0881C9.59499 56.882 9.29612 56.5949 9.09588 56.2268C8.89565 55.8558 8.79553 55.4009 8.79553 54.862C8.79553 54.438 8.89712 54.039 9.1003 53.665C9.31231 53.2734 9.60236 52.9775 9.97043 52.7772C10.3385 52.577 10.7522 52.4769 11.2116 52.4769C11.9212 52.4769 12.5028 52.7065 12.9563 53.1659C13.3656 53.584 13.5908 54.1008 13.6321 54.7162C14.0149 54.5602 14.2121 54.2628 14.2239 53.824H13.6232V52.5829Z" fill="#00A859"/>
<path d="M2.56768 57.2736V50.7984H3.83975L6.4899 55.1226V50.7984H7.70455V57.2736H6.39273L3.78233 53.051V57.2736H2.56768Z" fill="#00A859"/>
</svg>
