<svg width="153" height="60" viewBox="0 0 153 60" fill="none" xmlns="http://www.w3.org/2000/svg">
<path fill-rule="evenodd" clip-rule="evenodd" d="M30.1427 8.12934L3.44244 43.219L19.7106 43.4379L38.0215 17.9048L56.9889 43.4379L72.8193 43.219L45.7543 6.67031C40.7936 -1.57322 35.6141 -0.405992 30.1427 8.12934Z" fill="white"/>
<path fill-rule="evenodd" clip-rule="evenodd" d="M38.4592 28.1909L28.246 43.2189H49.256L38.4592 28.1909Z" fill="white"/>
<path fill-rule="evenodd" clip-rule="evenodd" d="M46.338 1.19874L73.0382 37.3827C78.2907 45.7721 83.4703 45.1156 88.7228 37.3827L107.909 11.8497H125.782C137.163 13.3816 140.956 28.7015 125.782 31.6925H107.909L107.69 16.8833L95.3614 33.8081V43.4377H126.876C155.328 40.009 156.932 4.55451 126.876 1.4176H98.936L80.5522 27.0965L61.5848 0.833984L46.338 1.19874Z" fill="white"/>
<path d="M148.901 57.2743H147.66V54.8803C147.66 54.3739 147.633 54.047 147.58 53.8998C147.527 53.7496 147.44 53.6333 147.32 53.5508C147.202 53.4684 147.059 53.4272 146.891 53.4272C146.676 53.4272 146.483 53.4861 146.313 53.6039C146.142 53.7216 146.024 53.8777 145.959 54.072C145.898 54.2664 145.867 54.6256 145.867 55.1498V57.2743H144.625V52.5835H145.778V53.2726C146.188 52.7426 146.703 52.4775 147.324 52.4775C147.598 52.4775 147.848 52.5276 148.075 52.6277C148.302 52.7249 148.473 52.85 148.587 53.0032C148.705 53.1563 148.786 53.33 148.83 53.5243C148.877 53.7187 148.901 53.997 148.901 54.3591V57.2743Z" fill="white"/>
<path d="M142.117 51.9477V50.7993H143.358V51.9477H142.117ZM142.117 57.2745V52.5838H143.358V57.2745H142.117Z" fill="white"/>
<path d="M138.221 57.2745V51.8947H136.3V50.7993H141.445V51.8947H139.528V57.2745H138.221Z" fill="white"/>
<path d="M126.096 52.5835H127.24V53.224C127.65 52.7264 128.137 52.4775 128.702 52.4775C129.003 52.4775 129.263 52.5394 129.484 52.663C129.705 52.7867 129.886 52.9737 130.028 53.224C130.234 52.9737 130.456 52.7867 130.695 52.663C130.933 52.5394 131.188 52.4775 131.459 52.4775C131.803 52.4775 132.095 52.5482 132.333 52.6896C132.572 52.8279 132.75 53.0326 132.868 53.3035C132.953 53.5037 132.996 53.8276 132.996 54.2752V57.2743H131.755V54.5932C131.755 54.128 131.712 53.8276 131.626 53.6922C131.512 53.5155 131.335 53.4272 131.096 53.4272C130.923 53.4272 130.759 53.4802 130.606 53.5862C130.453 53.6922 130.343 53.8483 130.275 54.0544C130.207 54.2576 130.173 54.58 130.173 55.0217V57.2743H128.932V54.7037C128.932 54.2473 128.91 53.9528 128.866 53.8203C128.822 53.6878 128.753 53.5891 128.658 53.5243C128.567 53.4596 128.442 53.4272 128.283 53.4272C128.091 53.4272 127.919 53.4787 127.766 53.5818C127.613 53.6848 127.503 53.8335 127.435 54.0279C127.37 54.2222 127.338 54.5447 127.338 54.9952V57.2743H126.096V52.5835Z" fill="white"/>
<path d="M123.87 55.7814L125.107 55.989C124.948 56.4424 124.696 56.7884 124.352 57.0269C124.01 57.2625 123.582 57.3803 123.066 57.3803C122.251 57.3803 121.647 57.1138 121.256 56.5808C120.946 56.1539 120.792 55.615 120.792 54.9642C120.792 54.1869 120.995 53.5788 121.401 53.1401C121.808 52.6984 122.321 52.4775 122.943 52.4775C123.641 52.4775 124.191 52.7087 124.595 53.171C124.998 53.6303 125.191 54.3356 125.173 55.2867H122.064C122.073 55.6548 122.173 55.9419 122.364 56.148C122.556 56.3512 122.794 56.4527 123.08 56.4527C123.274 56.4527 123.437 56.3997 123.57 56.2937C123.702 56.1877 123.803 56.0169 123.87 55.7814ZM123.941 54.527C123.932 54.1677 123.839 53.8954 123.663 53.7098C123.486 53.5214 123.271 53.4272 123.018 53.4272C122.747 53.4272 122.523 53.5258 122.346 53.7231C122.17 53.9204 122.083 54.1883 122.086 54.527H123.941ZM121.49 51.9917L122.417 50.6887H123.566L124.48 51.9917H123.482L122.969 51.3335L122.492 51.9917H121.49ZM123.579 50.4502H122.797L121.578 49.2046H122.969L123.579 50.4502Z" fill="white"/>
<path d="M118.636 51.9477V50.7993H119.877V51.9477H118.636ZM118.636 57.2745V52.5838H119.877V57.2745H118.636Z" fill="white"/>
<path d="M112.121 57.2745V50.7993H113.393L116.044 55.1235V50.7993H117.258V57.2745H115.946L113.336 53.0519V57.2745H112.121Z" fill="white"/>
<path d="M108.318 57.2743H107.077V54.8803C107.077 54.3739 107.051 54.047 106.998 53.8998C106.945 53.7496 106.858 53.6333 106.737 53.5508C106.619 53.4684 106.477 53.4272 106.309 53.4272C106.094 53.4272 105.901 53.4861 105.73 53.6039C105.559 53.7216 105.441 53.8777 105.377 54.072C105.315 54.2664 105.284 54.6256 105.284 55.1498V57.2743H104.043V52.5835H105.196V53.2726C105.605 52.7426 106.12 52.4775 106.742 52.4775C107.015 52.4775 107.266 52.5276 107.492 52.6277C107.719 52.7249 107.89 52.85 108.005 53.0032C108.123 53.1563 108.204 53.33 108.248 53.5243C108.295 53.7187 108.318 53.997 108.318 54.3591V57.2743Z" fill="white"/>
<path d="M98.2346 54.8627C98.2346 54.4504 98.3361 54.0514 98.5393 53.6657C98.7425 53.2799 99.0296 52.9855 99.4006 52.7823C99.7746 52.5791 100.191 52.4775 100.651 52.4775C101.36 52.4775 101.942 52.7087 102.395 53.171C102.849 53.6304 103.075 54.2119 103.075 54.9157C103.075 55.6253 102.846 56.2142 102.386 56.6824C101.93 57.1477 101.354 57.3803 100.659 57.3803C100.23 57.3803 99.8187 57.2831 99.4271 57.0888C99.0384 56.8945 98.7425 56.6103 98.5393 56.2363C98.3361 55.8594 98.2346 55.4015 98.2346 54.8627ZM99.5066 54.9289C99.5066 55.3942 99.617 55.7505 99.8379 55.9978C100.059 56.2452 100.331 56.3688 100.655 56.3688C100.979 56.3688 101.25 56.2452 101.468 55.9978C101.689 55.7505 101.799 55.3912 101.799 54.9201C101.799 54.4607 101.689 54.1074 101.468 53.86C101.25 53.6127 100.979 53.489 100.655 53.489C100.331 53.489 100.059 53.6127 99.8379 53.86C99.617 54.1074 99.5066 54.4637 99.5066 54.9289ZM99.9836 59.0455V57.8043H101.225V59.0455H99.9836Z" fill="white"/>
<path d="M96.1851 57.2743H94.944V52.5835H96.0968V53.2505C96.2941 52.9354 96.4707 52.7278 96.6268 52.6277C96.7858 52.5276 96.9654 52.4775 97.1657 52.4775C97.4484 52.4775 97.7207 52.5556 97.9828 52.7116L97.5985 53.7938C97.3895 53.6583 97.1951 53.5906 97.0155 53.5906C96.8418 53.5906 96.6945 53.6392 96.5738 53.7364C96.4531 53.8306 96.3574 54.0028 96.2867 54.2531C96.219 54.5034 96.1851 55.0276 96.1851 55.8256V57.2743Z" fill="white"/>
<path d="M91.4369 57.2745V51.8947H89.5156V50.7993H94.6613V51.8947H92.7443V57.2745H91.4369Z" fill="white"/>
<path d="M84.9352 51.9477V50.7993H86.1764V51.9477H84.9352ZM84.9352 57.2745V52.5838H86.1764V57.2745H84.9352Z" fill="white"/>
<path d="M83.0403 52.5836H84.2815V53.4714C84.2815 53.8366 84.2491 54.1222 84.1843 54.3283C84.1225 54.5344 84.0062 54.7185 83.8354 54.8804C83.5733 55.1337 83.1684 55.3045 82.6207 55.3928V57.2744H81.4679V56.5721C81.0999 57.111 80.5816 57.3804 79.9132 57.3804C79.2212 57.3804 78.7574 57.1169 78.5218 56.5898C78.41 56.3395 78.354 55.9935 78.354 55.5518V52.5836H79.5952V54.7391C79.5952 55.3575 79.6187 55.7609 79.6658 55.9493C79.6982 56.0907 79.7807 56.2084 79.9132 56.3027C80.0339 56.391 80.187 56.4352 80.3725 56.4352C80.5816 56.4352 80.7701 56.3778 80.9379 56.2629C81.1087 56.1481 81.225 56.0038 81.2868 55.8301C81.3487 55.6563 81.3796 55.2338 81.3796 54.5624V52.5836H82.6207V54.8893C83.03 54.8068 83.3171 54.6537 83.482 54.4299C83.5822 54.2945 83.6352 54.0927 83.6411 53.8248H83.0403V52.5836ZM80.2665 51.5236C80.4344 51.5059 80.5418 51.4897 80.589 51.475C80.745 51.4367 80.8245 51.369 80.8275 51.2718C80.8304 51.2041 80.7892 51.1467 80.7038 51.0995C80.5801 51.0318 80.3843 50.998 80.1164 50.998C80.0251 50.998 79.8867 51.0038 79.7012 51.0156L79.6526 50.5651C79.7674 50.5415 79.9794 50.5312 80.2886 50.5342C80.6508 50.5371 80.9467 50.596 81.1764 50.7109C81.4297 50.8345 81.5592 51.0068 81.5651 51.2276C81.5769 51.5339 81.3089 51.7209 80.7612 51.7886V52.0094H80.2665V51.5236Z" fill="white"/>
<path d="M74.3611 54.8934V53.8024H77.1791V56.3819C76.9053 56.6469 76.5078 56.881 75.9866 57.0842C75.4683 57.2844 74.9427 57.3845 74.4097 57.3845C73.7325 57.3845 73.1421 57.2432 72.6385 56.9605C72.135 56.6749 71.7566 56.2685 71.5034 55.7414C71.2502 55.2114 71.1235 54.6357 71.1235 54.0144C71.1235 53.3401 71.2649 52.7409 71.5476 52.2167C71.8302 51.6926 72.244 51.2906 72.7887 51.0109C73.2039 50.796 73.7207 50.6885 74.3391 50.6885C75.1429 50.6885 75.7701 50.8578 76.2207 51.1964C76.6741 51.5321 76.9657 51.9974 77.0952 52.5922L75.7966 52.8351C75.7054 52.5171 75.5331 52.2668 75.2799 52.0842C75.0296 51.8987 74.716 51.806 74.3391 51.806C73.7678 51.806 73.3129 51.987 72.9742 52.3492C72.6385 52.7114 72.4707 53.2488 72.4707 53.9614C72.4707 54.73 72.6415 55.3071 72.9831 55.6928C73.3246 56.0756 73.7722 56.267 74.3258 56.267C74.5997 56.267 74.8735 56.214 75.1474 56.108C75.4241 55.9991 75.6612 55.868 75.8585 55.7149V54.8934H74.3611Z" fill="white"/>
<path d="M64.5291 50.7993V53.18C64.9295 52.7118 65.408 52.4777 65.9646 52.4777C66.2502 52.4777 66.5079 52.5307 66.7375 52.6368C66.9672 52.7428 67.1395 52.8782 67.2543 53.0431C67.3721 53.208 67.4516 53.3906 67.4928 53.5908C67.537 53.791 67.5591 54.1017 67.5591 54.5228V57.2745H66.3179V54.7966C66.3179 54.3049 66.2944 53.9927 66.2473 53.8602C66.2001 53.7277 66.1162 53.6232 65.9955 53.5466C65.8777 53.4671 65.729 53.4274 65.5494 53.4274C65.3433 53.4274 65.1592 53.4774 64.9973 53.5776C64.8353 53.6777 64.7161 53.8293 64.6395 54.0325C64.5659 54.2327 64.5291 54.5301 64.5291 54.9247V57.2745H63.2879V50.7993H64.5291Z" fill="white"/>
<path d="M62.0291 57.2743H60.788V54.8803C60.788 54.3739 60.7615 54.047 60.7084 53.8998C60.6554 53.7496 60.5686 53.6333 60.4478 53.5508C60.3301 53.4684 60.1872 53.4272 60.0194 53.4272C59.8044 53.4272 59.6116 53.4861 59.4408 53.6039C59.27 53.7216 59.1522 53.8777 59.0874 54.072C59.0256 54.2664 58.9947 54.6256 58.9947 55.1498V57.2743H57.7535V52.5835H58.9063V53.2726C59.3156 52.7426 59.831 52.4775 60.4523 52.4775C60.7261 52.4775 60.9764 52.5276 61.2031 52.6277C61.4299 52.7249 61.6007 52.85 61.7155 53.0032C61.8333 53.1563 61.9143 53.33 61.9584 53.5243C62.0055 53.7187 62.0291 53.997 62.0291 54.3591V57.2743Z" fill="white"/>
<path d="M55.2447 57.2741V52.5833H56.4859V57.2741H55.2447ZM56.4947 52.0091H55.7129L54.4938 50.6885H55.8852L56.4947 52.0091Z" fill="white"/>
<path d="M52.9082 57.2743H51.667V52.5835H52.8198V53.2505C53.0171 52.9354 53.1938 52.7278 53.3499 52.6277C53.5089 52.5276 53.6885 52.4775 53.8887 52.4775C54.1714 52.4775 54.4438 52.5556 54.7059 52.7116L54.3216 53.7938C54.1125 53.6583 53.9182 53.5906 53.7386 53.5906C53.5648 53.5906 53.4176 53.6392 53.2969 53.7364C53.1761 53.8306 53.0804 54.0028 53.0098 54.2531C52.942 54.5034 52.9082 55.0276 52.9082 55.8256V57.2743Z" fill="white"/>
<path d="M48.16 57.2745V51.8947H46.2386V50.7993H51.3843V51.8947H49.4674V57.2745H48.16Z" fill="white"/>
<path d="M38.5311 57.5835L39.9489 57.7558C39.9725 57.9207 40.0269 58.034 40.1123 58.0959C40.2301 58.1842 40.4156 58.2284 40.6689 58.2284C40.9928 58.2284 41.2357 58.1798 41.3977 58.0826C41.5066 58.0178 41.5891 57.9133 41.645 57.769C41.6833 57.6659 41.7024 57.476 41.7024 57.1992V56.5146C41.3314 57.0211 40.8632 57.2743 40.2978 57.2743C39.6677 57.2743 39.1686 57.0078 38.8005 56.4748C38.5119 56.0538 38.3677 55.5296 38.3677 54.9024C38.3677 54.1162 38.5561 53.5155 38.933 53.1003C39.3129 52.6851 39.784 52.4775 40.3464 52.4775C40.9265 52.4775 41.405 52.7322 41.7819 53.2417V52.5835H42.9436V56.7929C42.9436 57.3465 42.8979 57.7602 42.8067 58.034C42.7154 58.3079 42.5873 58.5228 42.4224 58.6789C42.2575 58.835 42.0366 58.9572 41.7598 59.0455C41.486 59.1338 41.1385 59.178 40.7175 59.178C39.9224 59.178 39.3585 59.0411 39.0258 58.7672C38.693 58.4963 38.5267 58.1518 38.5267 57.7337C38.5267 57.6924 38.5281 57.6424 38.5311 57.5835ZM39.6397 54.8318C39.6397 55.3294 39.7354 55.6945 39.9268 55.9272C40.1212 56.1568 40.3597 56.2717 40.6424 56.2717C40.9457 56.2717 41.2018 56.1539 41.4109 55.9183C41.62 55.6798 41.7245 55.3279 41.7245 54.8627C41.7245 54.3768 41.6244 54.0161 41.4242 53.7805C41.2239 53.545 40.9707 53.4272 40.6645 53.4272C40.367 53.4272 40.1212 53.5435 39.9268 53.7761C39.7354 54.0058 39.6397 54.3577 39.6397 54.8318Z" fill="white"/>
<path d="M37.3827 57.2743H36.1416V54.8803C36.1416 54.3739 36.1151 54.047 36.0621 53.8998C36.0091 53.7496 35.9222 53.6333 35.8015 53.5508C35.6837 53.4684 35.5409 53.4272 35.373 53.4272C35.1581 53.4272 34.9652 53.4861 34.7944 53.6039C34.6236 53.7216 34.5058 53.8777 34.441 54.072C34.3792 54.2664 34.3483 54.6256 34.3483 55.1498V57.2743H33.1071V52.5835H34.26V53.2726C34.6693 52.7426 35.1846 52.4775 35.8059 52.4775C36.0797 52.4775 36.33 52.5276 36.5568 52.6277C36.7835 52.7249 36.9543 52.85 37.0691 53.0032C37.1869 53.1563 37.2679 53.33 37.312 53.5243C37.3592 53.7187 37.3827 53.997 37.3827 54.3591V57.2743Z" fill="white"/>
<path d="M27.2989 54.8625C27.2989 54.4502 27.4005 54.0512 27.6037 53.6655C27.8068 53.2797 28.0939 52.9853 28.465 52.7821C28.8389 52.5789 29.2556 52.4773 29.7149 52.4773C30.4246 52.4773 31.0062 52.7085 31.4596 53.1708C31.9131 53.6301 32.1398 54.2117 32.1398 54.9155C32.1398 55.6251 31.9102 56.214 31.4508 56.6822C30.9944 57.1475 30.4187 57.3801 29.7238 57.3801C29.2939 57.3801 28.8831 57.2829 28.4915 57.0886C28.1028 56.8942 27.8068 56.6101 27.6037 56.2361C27.4005 55.8592 27.2989 55.4013 27.2989 54.8625ZM28.571 54.9287C28.571 55.394 28.6814 55.7503 28.9022 55.9976C29.1231 56.245 29.3955 56.3686 29.7194 56.3686C30.0433 56.3686 30.3142 56.245 30.5321 55.9976C30.7529 55.7503 30.8633 55.391 30.8633 54.9199C30.8633 54.4605 30.7529 54.1072 30.5321 53.8598C30.3142 53.6125 30.0433 53.4888 29.7194 53.4888C29.3955 53.4888 29.1231 53.6125 28.9022 53.8598C28.6814 54.1072 28.571 54.4635 28.571 54.9287ZM28.222 51.9915L29.1496 50.6885H30.298L31.2123 51.9915H30.2141L29.7017 51.3333L29.2247 51.9915H28.222Z" fill="white"/>
<path d="M25.2009 54.8934L26.4685 55.2953C26.2742 56.002 25.9503 56.5276 25.4968 56.8722C25.0463 57.2137 24.4735 57.3845 23.7786 57.3845C22.9188 57.3845 22.2121 57.0915 21.6585 56.5056C21.1049 55.9166 20.8281 55.1128 20.8281 54.0939C20.8281 53.0162 21.1064 52.1799 21.6629 51.5851C22.2194 50.9874 22.9512 50.6885 23.8581 50.6885C24.6502 50.6885 25.2936 50.9226 25.7883 51.3908C26.0828 51.6676 26.3036 52.0651 26.4509 52.5833L25.1567 52.8925C25.0801 52.5568 24.9197 52.2918 24.6752 52.0975C24.4338 51.9031 24.1393 51.806 23.7919 51.806C23.3119 51.806 22.9217 51.9782 22.6214 52.3227C22.324 52.6673 22.1753 53.2253 22.1753 53.9967C22.1753 54.8153 22.3225 55.3984 22.617 55.7458C22.9114 56.0933 23.2942 56.267 23.7654 56.267C24.1128 56.267 24.4117 56.1566 24.662 55.9358C24.9123 55.7149 25.0919 55.3675 25.2009 54.8934Z" fill="white"/>
<path d="M16.0137 51.9477V50.7993H17.2548V51.9477H16.0137ZM16.0137 57.2745V52.5838H17.2548V57.2745H16.0137Z" fill="white"/>
<path d="M10.5676 54.9289C10.5676 55.3795 10.678 55.7358 10.8989 55.9978C11.1079 56.2452 11.3803 56.3688 11.716 56.3688C12.0517 56.3688 12.3226 56.2452 12.5287 55.9978C12.7496 55.7358 12.86 55.3765 12.86 54.9201C12.86 54.4725 12.7496 54.1192 12.5287 53.86C12.3226 53.6127 12.0517 53.489 11.716 53.489C11.3803 53.489 11.1079 53.6127 10.8989 53.86C10.678 54.1221 10.5676 54.4784 10.5676 54.9289ZM14.1232 52.5835H15.3644V53.4713C15.3644 53.8365 15.332 54.1221 15.2672 54.3282C15.2054 54.5343 15.0891 54.7184 14.9183 54.8803C14.721 55.0717 14.4516 55.2219 14.11 55.3309C14.0364 55.858 13.817 56.307 13.4519 56.678C12.9925 57.1462 12.4154 57.3803 11.7204 57.3803C11.2758 57.3803 10.8665 57.2831 10.4925 57.0888C10.095 56.8827 9.79612 56.5956 9.59589 56.2275C9.39565 55.8565 9.29554 55.4015 9.29554 54.8627C9.29554 54.4386 9.39713 54.0397 9.6003 53.6657C9.81232 53.2741 10.1024 52.9781 10.4704 52.7779C10.8385 52.5777 11.2522 52.4775 11.7116 52.4775C12.4212 52.4775 13.0028 52.7072 13.4563 53.1666C13.8656 53.5847 14.0908 54.1015 14.1321 54.7169C14.5149 54.5609 14.7121 54.2634 14.7239 53.8247H14.1232V52.5835Z" fill="white"/>
<path d="M3.06768 57.2745V50.7993H4.33975L6.9899 55.1235V50.7993H8.20456V57.2745H6.89273L4.28233 53.0519V57.2745H3.06768Z" fill="white"/>
</svg>
